<svg width="2387" height="485" viewBox="0 0 2387 485" fill="none" xmlns="http://www.w3.org/2000/svg">
<g clip-path="url(#clip0_2245_16292)">
<path d="M125.19 483.05H9.17002C1.09002 483.05 -1.32998 479.66 0.660021 472.75L124.5 58C134.01 26.16 164.49 4.72998 200.3 4.72998H262.38C271.25 4.72998 273.06 6.95998 270.89 15.03L132.73 477.76C131.43 481.83 130.23 483.05 125.2 483.05H125.19Z" fill="#A088FE"/>
<path d="M512.95 33.2899L256.55 231.67C246.33 239.67 250.38 245.56 262.65 245.52H400.38L333.14 473.12C330.72 481 332.65 483.4 341.65 483.4H457.69C462.76 483.4 463.72 482.45 465.23 478.09L534.25 244.46L598.04 26.4099C606.11 -3.64006 574.57 -16.1301 512.94 33.2999L512.95 33.2899Z" fill="#A088FE"/>
<path d="M792 160.72V221.03C792 239.42 791.63 259.27 791.63 259.27C800.82 243.09 818.11 229.85 844.95 229.85C897.53 229.85 911.14 263.31 911.14 307.44V414.45H851.94V319.21C851.94 297.15 849 278.03 824.36 278.03C799.72 278.03 792 298.62 792 325.47V414.46H733.16V160.73H792V160.72Z" fill="#A088FE"/>
<path d="M978.44 151.16C998.3 151.16 1011.9 163.66 1011.9 181.68C1011.9 199.7 998.29 212.2 978.44 212.2C958.59 212.2 944.98 200.07 944.98 181.68C944.98 163.29 958.59 151.16 978.44 151.16ZM1007.86 233.16V414.45H949.02V233.16H1007.86Z" fill="#A088FE"/>
<path d="M1211.2 456C1193.55 472.55 1169.28 484.68 1127.73 484.68C1086.18 484.68 1052.35 467.03 1039.85 457.84L1064.12 418.49C1074.78 426.58 1102.36 439.08 1126.63 439.08C1150.9 439.08 1163.03 431.36 1169.29 424.74C1175.54 417.75 1180.32 404.88 1180.32 388.7V382.39C1164.74 399.92 1150.53 408.56 1122.59 408.56C1077.36 408.56 1036.91 377.67 1036.91 317.73C1036.91 261.1 1078.09 229.84 1122.59 229.84C1152.38 229.84 1171.32 243.86 1179.95 256.32V233.15H1238.78V377.66C1238.78 416.64 1228.85 439.44 1211.2 455.99V456ZM1181.78 320.31C1181.78 295.67 1165.6 275.82 1139.49 275.82C1113.38 275.82 1096.83 295.68 1096.83 320.31C1096.83 344.94 1114.11 363.7 1139.49 363.7C1164.87 363.7 1181.78 344.95 1181.78 320.31Z" fill="#A088FE"/>
<path d="M1338.8 160.72V221.03C1338.8 239.42 1338.43 259.27 1338.43 259.27C1347.62 243.09 1364.91 229.85 1391.75 229.85C1444.33 229.85 1457.94 263.31 1457.94 307.44V414.45H1398.74V319.21C1398.74 297.15 1395.8 278.03 1371.16 278.03C1346.52 278.03 1338.8 298.62 1338.8 325.47V414.46H1279.96V160.73H1338.8V160.72Z" fill="#A088FE"/>
<path d="M1624.15 233.16L1623.78 256.33C1637.02 240.52 1657.24 229.85 1684.82 229.85C1737.04 229.85 1770.13 270.67 1770.13 323.99C1770.13 377.31 1737.04 418.49 1684.45 418.49C1657.61 418.49 1638.49 408.56 1627.09 391.65V481.01H1568.25V233.17H1624.14L1624.15 233.16ZM1710.2 323.25C1710.2 295.3 1692.92 276.18 1667.54 276.18C1642.16 276.18 1625.25 295.3 1625.25 323.25C1625.25 351.2 1642.53 370.32 1667.54 370.32C1692.55 370.32 1710.2 351.2 1710.2 323.25Z" fill="#A088FE"/>
<path d="M1828.6 151.16C1848.46 151.16 1862.06 163.66 1862.06 181.68C1862.06 199.7 1848.45 212.2 1828.6 212.2C1808.75 212.2 1795.14 200.07 1795.14 181.68C1795.14 163.29 1808.75 151.16 1828.6 151.16ZM1858.02 233.16V414.45H1799.18V233.16H1858.02Z" fill="#A088FE"/>
<path d="M1963.55 418.49C1942.59 418.49 1928.62 412.24 1919.42 401.57C1910.23 390.91 1906.55 375.83 1906.55 348.25V278.01H1880.81V233.52H1906.55V184.25H1965.75V233.52H2005.83V278.01H1965.75V343.1C1965.75 358.54 1967.96 362.22 1970.9 365.53C1973.47 368.47 1977.15 369.94 1984.87 369.94C1994.06 369.94 2002.52 366.63 2002.52 366.63L2005.46 412.59C2001.05 413.69 1984.87 418.47 1963.54 418.47L1963.55 418.49Z" fill="#A088FE"/>
<path d="M2114.31 418.49C2064.67 418.49 2018.7 384.66 2018.7 324.35C2018.7 264.04 2065.4 229.85 2115.04 229.85C2161.37 229.85 2182.33 248.97 2182.33 248.97L2169.46 293.46C2164.31 289.42 2148.13 277.28 2122.76 277.28C2097.39 277.28 2077.9 294.56 2077.9 323.24C2077.9 351.92 2095.92 369.94 2123.5 369.94C2151.08 369.94 2169.46 352.29 2169.46 352.29L2183.43 396.78C2181.59 398.25 2162.47 418.48 2114.3 418.48L2114.31 418.49Z" fill="#A088FE"/>
<path d="M2266.92 160.72V221.03C2266.92 239.42 2266.55 259.27 2266.55 259.27C2275.74 243.09 2293.03 229.85 2319.87 229.85C2372.45 229.85 2386.06 263.31 2386.06 307.44V414.45H2326.86V319.21C2326.86 297.15 2323.92 278.03 2299.28 278.03C2274.64 278.03 2266.92 298.62 2266.92 325.47V414.46H2208.08V160.73H2266.92V160.72Z" fill="#A088FE"/>
</g>
<defs>
<clipPath id="clip0_2245_16292">
<rect width="2386.06" height="484.68" fill="white"/>
</clipPath>
</defs>
</svg>
