<svg width="24" height="24" viewBox="0 0 24 24" fill="none" xmlns="http://www.w3.org/2000/svg">
<path d="M6.76063 19.1221H3.27537C3.0326 19.1221 2.96014 19.0202 3.01976 18.8125L6.73952 6.35404C7.02509 5.3975 7.94085 4.75391 9.01635 4.75391H10.8812C11.1477 4.75391 11.2022 4.82095 11.1369 5.06343L6.98658 18.9629C6.94778 19.0853 6.91183 19.1221 6.76063 19.1221Z" fill="black"/>
<path fill-rule="evenodd" clip-rule="evenodd" d="M10.7057 11.571L18.4074 5.61203C20.2586 4.12744 21.2062 4.50258 20.9638 5.4052L19.0475 11.955L18.7188 13.0676C16.6059 13.4374 15 15.2812 15 17.5C15 18.0757 15.1081 18.6262 15.3052 19.1323H13.2618C12.9916 19.1323 12.9334 19.0604 13.0062 18.8237L15.0259 11.9869H10.8888C10.5202 11.9884 10.3987 11.8112 10.7057 11.571Z" fill="black"/>
<circle cx="19.5" cy="17.5" r="3.5" fill="#E2593F"/>
</svg>
